<?xml version="1.0" standalone="no"?>
<!DOCTYPE svg PUBLIC "-//W3C//DTD SVG 20010904//EN"
 "http://www.w3.org/TR/2001/REC-SVG-20010904/DTD/svg10.dtd">
<svg version="1.0" xmlns="http://www.w3.org/2000/svg"
 width="612.000000pt" height="612.000000pt" viewBox="0 0 612.000000 612.000000"
 preserveAspectRatio="xMidYMid meet">

<g transform="translate(0.000000,612.000000) scale(0.100000,-0.100000)"
 stroke="none">
<path d="M2472 5318 c-9 -9 -12 -83 -12 -270 l0 -258 30 0 30 0 0 254 c0 218
-2 257 -16 270 -19 19 -17 19 -32 4z"/>
<path d="M1913 5103 c-28 -10 -9 -44 98 -176 104 -128 113 -137 146 -137 19 0
33 4 31 9 -5 15 -242 300 -253 304 -5 2 -16 2 -22 0z"/>
<path d="M2919 4959 c-68 -82 -125 -154 -127 -160 -2 -5 11 -9 30 -9 30 0 42
11 143 134 61 74 112 142 113 152 4 15 -13 33 -29 34 -4 0 -62 -68 -130 -151z"/>
<path d="M1590 4734 c-11 -12 -11 -17 1 -29 12 -12 300 -125 318 -125 9 0 33
41 28 47 -6 6 -317 123 -327 123 -4 0 -13 -7 -20 -16z"/>
<path d="M3195 4688 c-88 -33 -162 -62 -164 -65 -3 -2 5 -13 16 -25 l22 -21
158 59 c145 55 158 62 158 84 0 14 -6 26 -15 27 -8 1 -87 -25 -175 -59z"/>
<path d="M2308 4672 l-167 -2 -58 -68 c-32 -37 -60 -69 -63 -72 -43 -42 -111
-133 -108 -145 5 -25 559 -605 578 -605 9 0 101 89 206 202 104 111 230 244
279 296 50 52 91 100 93 107 5 22 -227 285 -252 285 -207 4 -372 4 -508 2z
m105 -58 c3 -4 -13 -27 -37 -53 -24 -25 -56 -61 -71 -79 -15 -18 -31 -30 -36
-25 -10 11 -59 134 -59 150 0 10 23 13 98 13 54 0 101 -3 105 -6z m357 -6 c0
-14 -49 -140 -59 -150 -6 -7 -151 143 -151 156 0 3 47 6 105 6 74 0 105 -4
105 -12z m-205 -89 c39 -44 72 -84 73 -89 2 -6 -58 -10 -153 -10 l-157 0 26
31 c58 68 131 149 136 148 3 0 37 -36 75 -80z m-383 -14 c15 -37 28 -72 28
-77 0 -4 -48 -8 -106 -8 l-105 0 63 70 c35 39 65 75 67 81 7 22 26 -1 53 -66z
m709 13 c94 -109 96 -98 -20 -98 -71 0 -101 3 -101 12 0 17 54 148 61 148 3 0
30 -28 60 -62z m-590 -313 c33 -82 68 -175 79 -205 l20 -55 -106 110 c-58 61
-147 154 -196 208 l-91 98 118 -3 117 -3 59 -150z m369 148 c0 -5 -23 -66 -51
-138 -27 -71 -66 -172 -86 -222 -20 -51 -39 -93 -44 -93 -4 0 -17 24 -27 53
-11 28 -50 128 -86 220 -36 92 -66 172 -66 178 0 5 73 9 180 9 99 0 180 -3
180 -7z m249 -50 c-30 -32 -117 -124 -194 -206 -76 -81 -139 -146 -141 -144
-3 2 78 213 146 385 9 21 15 22 127 22 l117 0 -55 -57z"/>
<path d="M1301 4406 c-6 -7 -9 -21 -5 -30 5 -14 34 -16 253 -16 l248 0 0 30 0
30 -242 0 c-194 0 -245 -3 -254 -14z"/>
<path d="M3180 4390 l0 -30 244 0 c204 0 246 2 256 15 10 12 10 18 0 30 -10
13 -52 15 -256 15 l-244 0 0 -30z"/>
<path d="M1750 4143 c-151 -57 -170 -67 -170 -89 0 -30 44 -22 201 37 90 34
166 63 168 65 7 6 -31 44 -43 43 -6 0 -76 -25 -156 -56z"/>
<path d="M3040 4179 c-7 -11 -10 -22 -8 -24 2 -1 79 -31 171 -65 169 -63 194
-67 185 -24 -2 12 -46 34 -153 75 -82 32 -158 58 -167 58 -10 1 -22 -8 -28
-20z"/>
<path d="M2032 3996 c-283 -115 -530 -359 -651 -646 -60 -141 -83 -249 -88
-420 -4 -117 -1 -178 11 -248 74 -424 367 -775 776 -929 99 -38 223 -62 352
-69 l116 -7 28 -51 c93 -175 231 -323 412 -445 294 -198 711 -244 1059 -118
721 262 1018 1140 601 1779 -119 182 -276 323 -468 422 -166 84 -298 119 -505
132 l-100 7 -37 67 c-53 97 -148 219 -229 294 -118 109 -300 219 -428 257 -36
11 -43 10 -61 -6 -25 -22 -26 -35 -2 -35 29 0 177 -65 261 -115 99 -60 230
-172 297 -256 48 -61 134 -195 134 -210 0 -4 -30 -12 -67 -19 -38 -6 -77 -13
-89 -16 -17 -4 -29 7 -63 59 -54 83 -176 205 -262 262 -88 59 -202 110 -300
136 l-80 20 -19 -23 c-26 -30 -25 -38 4 -38 37 0 191 -47 249 -76 92 -46 181
-111 250 -181 76 -78 143 -171 130 -183 -4 -4 -26 -13 -48 -20 -127 -40 -303
-155 -426 -279 -180 -181 -288 -384 -335 -630 -18 -93 -24 -305 -10 -385 l8
-49 -69 6 c-294 28 -575 226 -708 500 -218 448 -38 989 404 1211 78 40 220 86
262 86 35 0 37 9 6 38 l-23 22 -80 -20 c-297 -77 -558 -316 -664 -608 -125
-346 -40 -737 218 -1001 120 -123 257 -205 431 -258 79 -25 100 -27 256 -27
143 0 182 4 248 22 423 117 714 486 720 912 1 63 -1 138 -6 166 -9 61 -8 62
98 71 l72 6 6 -54 c12 -94 8 -283 -8 -370 -94 -537 -576 -939 -1124 -939 -632
0 -1143 510 -1144 1140 0 315 114 593 336 813 126 126 306 238 447 278 57 16
57 15 35 39 -24 27 -36 25 -133 -14z m1745 -667 c132 -17 233 -48 358 -109
141 -69 222 -128 328 -240 296 -309 393 -745 257 -1152 -138 -411 -502 -711
-935 -770 -117 -16 -310 -4 -426 25 -212 55 -358 138 -515 292 -106 104 -224
261 -224 298 0 10 20 18 68 26 37 6 76 13 87 16 16 4 27 -7 54 -52 78 -129
250 -277 405 -348 144 -67 210 -80 406 -79 161 0 182 2 263 27 167 51 301 132
420 254 90 91 130 149 183 258 65 137 85 218 91 374 6 148 -4 230 -45 351 -80
241 -258 445 -488 559 -371 184 -812 112 -1109 -183 -120 -119 -213 -280 -256
-443 -25 -93 -36 -293 -21 -373 6 -30 7 -59 2 -63 -4 -5 -44 -11 -87 -14 -95
-7 -89 -15 -99 147 -19 308 93 612 310 847 245 264 621 400 973 352z m41 -245
c174 -36 338 -127 467 -258 354 -363 344 -937 -21 -1287 -178 -169 -384 -252
-629 -252 -259 1 -486 98 -660 284 -54 57 -115 141 -115 158 0 5 26 19 58 31
208 78 421 243 554 431 97 136 173 323 203 493 16 94 19 289 6 369 l-8 47 34
0 c19 0 69 -7 111 -16z m-431 -51 c15 -54 9 -264 -11 -347 -64 -276 -241 -497
-491 -617 -150 -72 -142 -72 -150 7 -4 37 -5 117 -3 178 11 248 144 500 343
653 71 55 256 153 287 153 11 0 21 -11 25 -27z"/>
</g>
</svg>
