<?xml version="1.0" standalone="no"?>
<!DOCTYPE svg PUBLIC "-//W3C//DTD SVG 20010904//EN"
 "http://www.w3.org/TR/2001/REC-SVG-20010904/DTD/svg10.dtd">
<svg version="1.0" xmlns="http://www.w3.org/2000/svg"
 width="612.000000pt" height="612.000000pt" viewBox="0 0 612.000000 612.000000"
 preserveAspectRatio="xMidYMid meet">
<metadata>
Created by potrace 1.14, written by Peter Selinger 2001-2017
</metadata>
<g transform="translate(0.000000,612.000000) scale(0.100000,-0.100000)"
fill="#000000" stroke="none">
<path d="M2472 5318 c-9 -9 -12 -88 -12 -270 l0 -258 30 0 30 0 0 260 c0 242
-1 260 -18 269 -13 7 -23 6 -30 -1z"/>
<path d="M1901 5092 c-8 -15 11 -43 106 -160 112 -139 116 -142 154 -142 l39
0 -121 148 c-150 183 -159 190 -178 154z"/>
<path d="M2979 5033 c-36 -43 -95 -115 -133 -160 l-68 -83 39 0 c38 0 42 4
148 135 107 131 130 176 94 183 -9 2 -41 -29 -80 -75z"/>
<path d="M1590 4735 c-21 -25 1 -39 166 -100 l155 -58 22 21 c11 12 19 23 16
25 -7 7 -329 127 -338 127 -5 0 -14 -7 -21 -15z"/>
<path d="M3195 4688 c-88 -33 -162 -62 -164 -64 -3 -3 5 -14 16 -26 l22 -21
153 57 c155 58 187 78 167 103 -6 7 -17 13 -23 12 -6 0 -83 -28 -171 -61z"/>
<path d="M2154 4670 c-24 -9 -237 -252 -242 -275 -4 -18 21 -46 326 -369 134
-141 241 -246 251 -246 11 0 107 95 227 222 115 122 241 256 279 296 39 41 71
80 73 88 4 16 -223 281 -247 288 -30 8 -646 5 -667 -4z m256 -59 c0 -10 -129
-156 -138 -156 -7 0 -62 134 -62 152 0 10 23 13 100 13 55 0 100 -4 100 -9z
m359 -3 c-1 -26 -57 -153 -65 -149 -20 10 -143 149 -137 155 3 3 51 6 105 6
72 0 98 -3 97 -12z m-129 -180 c0 -4 -70 -8 -156 -8 l-156 0 63 71 c35 39 71
80 79 91 14 21 17 19 92 -63 43 -46 78 -87 78 -91z m-456 73 c14 -36 26 -68
26 -73 0 -4 -45 -8 -100 -8 -55 0 -100 3 -100 6 0 14 134 154 141 147 4 -4 19
-37 33 -72z m720 2 l65 -78 -96 -3 c-52 -1 -98 -1 -100 2 -6 6 50 156 58 156
4 0 36 -35 73 -77z m-651 -180 c22 -51 115 -288 133 -338 15 -43 1 -30 -278
268 l-100 107 114 0 115 0 16 -37z m417 30 c0 -15 -175 -453 -181 -453 -4 0
-11 12 -17 28 -101 255 -162 415 -162 423 0 5 75 9 180 9 99 0 180 -3 180 -7z
m109 -198 c-105 -113 -193 -204 -195 -202 -2 1 29 84 67 182 39 99 75 190 80
203 8 21 13 22 124 22 l116 0 -192 -205z"/>
<path d="M1294 4405 c-4 -8 -4 -22 0 -30 5 -13 42 -15 254 -15 l249 0 1 30 1
30 -250 0 c-213 0 -250 -2 -255 -15z"/>
<path d="M3180 4390 l0 -30 244 0 c255 0 276 3 260 44 -5 14 -34 16 -255 16
l-249 0 0 -30z"/>
<path d="M1750 4144 c-152 -58 -170 -68 -170 -90 0 -30 44 -22 201 37 90 34
165 63 167 64 8 7 -24 45 -38 45 -8 -1 -80 -26 -160 -56z"/>
<path d="M3036 4181 c-10 -10 -14 -21 -9 -24 4 -3 84 -33 176 -68 147 -55 170
-60 183 -48 11 12 12 18 2 31 -12 16 -296 128 -323 128 -6 0 -20 -9 -29 -19z"/>
<path d="M2817 4017 c-9 -12 -17 -24 -17 -27 0 -3 25 -14 55 -23 190 -58 406
-209 528 -370 54 -70 127 -184 127 -197 0 -4 -30 -12 -67 -19 -38 -6 -77 -13
-88 -17 -17 -4 -28 5 -54 47 -128 197 -345 353 -571 410 l-81 21 -19 -24 c-25
-30 -25 -38 3 -38 36 0 163 -38 233 -70 137 -62 272 -173 364 -300 22 -30 40
-58 40 -61 0 -4 -21 -14 -47 -24 -360 -135 -657 -461 -749 -822 -43 -170 -53
-363 -27 -495 l6 -31 -69 6 c-208 20 -431 136 -573 300 -102 117 -163 231
-202 378 -31 114 -33 319 -5 429 46 180 127 320 258 446 130 126 310 220 459
240 27 4 49 10 49 14 0 3 -10 16 -23 28 l-23 22 -80 -20 c-175 -44 -385 -178
-498 -318 -352 -436 -278 -1063 164 -1391 190 -141 381 -199 627 -188 209 8
389 74 549 201 179 141 304 341 351 561 17 78 22 249 11 336 -9 67 -10 67 97
76 l73 6 7 -78 c13 -133 0 -318 -29 -430 -34 -131 -126 -315 -209 -420 -289
-365 -769 -518 -1216 -389 -184 54 -342 147 -481 284 -140 137 -232 285 -289
465 -44 136 -54 222 -48 397 7 211 49 359 153 535 137 232 390 437 626 504 54
16 52 13 36 38 -16 26 -39 26 -106 1 -398 -151 -690 -513 -763 -943 -19 -115
-7 -363 24 -480 124 -468 514 -821 987 -893 52 -7 127 -14 165 -14 l70 0 49
-85 c189 -326 508 -542 881 -595 564 -80 1128 273 1304 818 46 141 56 213 55
387 0 132 -4 177 -23 254 -90 366 -318 652 -650 816 -150 74 -292 110 -480
121 l-107 7 -14 30 c-25 57 -129 203 -194 274 -133 143 -334 271 -507 323 -19
6 -29 3 -42 -13z m1063 -706 c524 -117 900 -582 900 -1113 0 -366 -174 -712
-467 -926 -388 -284 -910 -296 -1311 -31 -76 50 -214 178 -270 251 -47 62
-112 167 -112 183 0 6 39 17 86 26 l86 15 35 -55 c54 -86 215 -239 308 -294
165 -98 311 -137 508 -137 199 0 356 47 527 159 191 125 328 312 396 538 36
120 45 327 19 453 -40 198 -122 349 -269 495 -119 118 -220 182 -363 231 -119
40 -199 54 -319 54 -259 0 -492 -98 -679 -285 -129 -128 -210 -269 -256 -443
-24 -90 -35 -288 -21 -375 5 -32 5 -60 1 -63 -4 -2 -44 -7 -88 -11 l-79 -6 -9
49 c-13 81 -7 311 11 392 22 100 60 210 97 285 167 330 486 563 854 622 113
18 298 12 415 -14z m-24 -237 c440 -114 724 -517 683 -968 -46 -497 -501 -870
-994 -815 -220 24 -422 123 -564 275 -61 65 -121 145 -121 162 0 5 21 17 48
27 363 135 645 449 750 835 24 88 26 111 26 304 l1 208 57 -6 c32 -4 83 -14
114 -22z m-469 -41 c14 -51 7 -274 -10 -347 -66 -270 -242 -494 -479 -611 -51
-25 -107 -48 -124 -51 -31 -6 -31 -5 -38 41 -57 421 190 835 584 981 51 19 59
17 67 -13z"/>
</g>
</svg>
